<svg xmlns="http://www.w3.org/2000/svg" xmlns:xlink="http://www.w3.org/1999/xlink" width="598" height="223"><defs><path id="a" d="M0 0h640v221H0z"/><path id="c" d="M.148.213h164.247v106.352H.148z"/><path id="e" d="M.56.6h156.08v90.962H.56z"/><path id="g" d="M0 0h394v212H0z"/></defs><g fill="none" fill-rule="evenodd"><g transform="matrix(-1 0 0 1 598 2)"><mask id="b" fill="#fff"><use xlink:href="#a"/></mask><path fill="#07437F" stroke="#14428B" d="M208.872 894.524c-248.41 0-449.785-200.246-449.785-447.262S-39.537 0 208.872 0c248.41 0 449.785 200.246 449.785 447.262S457.28 894.524 208.872 894.524z" mask="url(#b)"/></g><g transform="matrix(-1 0 0 1 245 114)"><mask id="d" fill="#fff"><use xlink:href="#c"/></mask><path fill="#07437F" d="M151.886 45.163c24.05 41.343 12.379 92.717-26.069 114.749-38.447 22.03-89.111 6.375-113.161-34.968C-11.394 83.601.278 32.227 38.726 10.195c38.446-22.03 89.11-6.376 113.16 34.968" mask="url(#d)"/></g><g transform="matrix(-1 0 0 1 238 130)"><mask id="f" fill="#fff"><use xlink:href="#e"/></mask><path fill="#06C" d="M114.417 135.953C76.135 157.971 29.066 148.15 9.284 114.02-10.498 79.886 4.5 34.369 42.782 12.351 81.064-9.666 128.134.154 147.915 34.285c19.782 34.132 4.784 79.65-33.498 101.668z" mask="url(#f)" opacity=".248"/></g><g opacity=".235" transform="matrix(-1 0 0 1 601 0)"><mask id="h" fill="#fff"><use xlink:href="#g"/></mask><path fill="#006ACE" d="M398.062 40.467C344.622 17.953 272.395 0 210.666 0 95.983 0-8.564 42.999-87.47 113.61c-5.526 19.663 1.539 43.027 14.964 58.25 15.787 17.902 38.273 26.67 60.378 32.582 54.416 14.554 110.025 5.524 165.605-5.592 23.833-4.766 81.458-28.342 98.982-38.016 65.275-36.033 101.216-57.61 145.603-120.367" mask="url(#h)"/></g><path fill="#006ACE" d="M441.939 152.046c-22.676-12.615-22.567-47.407.217-58.037a170.462 170.462 0 0 1 31.645-11.127c46.096-11.27 93.135-2.552 134.55 21.23 13.731 7.884 20.264 25.575 14.62 40.705-.117.312-.237.621-.361.926-4.672 11.48-13.53 18.709-22.598 24.34-22.319 13.86-48.29 20.485-74.505 14.984-9.19-1.927-18.3-5.301-27.382-8.666-18.769-6.955-37.996-14.234-56.186-24.355" opacity=".658"/><path fill="#14428B" d="M452.897 111.071a137.342 137.342 0 0 1 25.631-9.084c37.339-9.202 75.44-2.085 108.987 17.334 11.122 6.437 16.414 20.882 11.841 33.236-.094.255-.192.507-.292.756-3.784 9.373-10.96 15.276-18.304 19.873-18.078 11.318-39.115 16.727-60.35 12.236-7.443-1.574-14.822-4.329-22.179-7.076-15.202-5.68-30.776-11.623-45.51-19.886-18.368-10.3-18.28-38.71.176-47.389z" opacity=".481"/><path fill="#355B94" d="M246.668 101.19c-9.779 11.699-6.587 30.05 7.127 40.99 13.714 10.94 32.76 10.327 42.537-1.37 9.778-11.698 6.588-30.05-7.127-40.99-13.714-10.94-32.759-10.327-42.537 1.37"/><path fill="#173E77" d="M244.537 109.09c-7 8.717-3.288 23.579 8.29 33.193 11.577 9.617 26.637 10.344 33.636 1.627 7-8.717 3.288-23.579-8.29-33.194-11.578-9.615-26.637-10.343-33.636-1.626"/><path fill="#06C" d="M386 56h-47V23h47l-10.217 16.5z"/><path fill="#ABB6C5" d="M338 18c-.552 0-1 .462-1 1.033v59.934c0 .571.448 1.033 1 1.033s1-.462 1-1.033V19.033c0-.571-.448-1.033-1-1.033z"/><path fill="#07437F" d="M334.403 82.005c1.07-.804 2.539-1.653 3.796-1.054.689.328 1.049.992 1.45 1.578 1.503 2.186 4.041 3.651 6.293 5.287 2.823 2.05 5.481 5.321 3.94 8.177-.997 1.847-3.394 2.736-5.625 3.383-2.716.788-5.544 1.454-8.418 1.322-2.45-.113-4.819-.8-7.152-1.48a4865.78 4865.78 0 0 1-3.492-1.018c-7.14-2.083.593-9.726 3.69-12.052l5.518-4.143z" opacity=".584"/><path fill="#FFF" d="M364.306 47a4.64 4.64 0 0 0 2.377-.651l-.02.01c1.392-.78 2.337-2.25 2.337-3.947 0-2.447-1.97-4.45-4.426-4.509-.616-2.802-3.133-4.893-6.136-4.903a6.274 6.274 0 0 0-5.57 3.354c-.13-.01-.259-.02-.398-.02-3.023 0-5.47 2.438-5.47 5.427a5.39 5.39 0 0 0 2.556 4.598l-.02-.01a4.638 4.638 0 0 0 2.377.651h12.393z"/></g></svg>